<svg width="399" height="470" viewBox="0 0 399 470" fill="none" xmlns="http://www.w3.org/2000/svg">
<path d="M111.259 404.801L111.561 404.937L111.478 405.184L111.012 404.992L111.259 404.801ZM29.6746 397.52L30.0589 397.903L30.9922 397.766L30.7451 397.958V398.341L30.2784 398.45L30.0589 398.779L30.1412 399.217L29.6746 399.354L29.5922 399.6L29.2079 399.846L27.4785 399.901V399.518L27.2314 399.326L27.3138 399.08L28.1099 398.833V398.642L28.4118 398.505L28.5765 397.93L28.9608 397.876L29.2628 397.492H29.6746V397.52ZM0.988279 391.06L1.07063 391.306L0.603925 391.744H0.302004L0 391.416L0.164783 391.033H0.988279V391.06ZM26.0784 388.104L26.4628 388.159L26.5451 388.35L27.4785 388.788L28.5765 388.98V389.801L28.8785 389.856L28.9608 389.527H29.2628L29.5648 389.91H29.7843L30.251 390.294V390.54L29.702 390.595L29.5373 390.786H28.9883L28.8235 391.169H28.604L28.302 390.786L28.4667 390.403L28.2196 390.348L27.5883 390.786V391.553L27.2039 391.936L27.1216 392.237H26.902L26.8197 391.991L26.5177 391.799L25.8863 391.744V391.553L26.1059 391.416L26.0236 391.279L25.2275 391.142L25.0079 390.95H24.2941L23.9922 390.376V389.253L24.6235 389.007L25.6393 388.076H26.0784V388.104ZM20.5334 357.803L20.8354 358.132H21.1373L21.3843 357.885L21.6863 358.022V358.515L21.302 359.09V359.719L21.1373 359.774L21.2196 360.349L21.0549 360.486L21.3569 361.252V362.457L21.1922 362.84L21.3569 362.894L21.4393 364.017L20.9726 364.4L20.8079 364.783L20.4235 364.975L20.2588 365.303H20.0118V364.92L20.4785 364.619L20.9451 364.126V363.935L20.7255 363.798L20.6432 363.497L19.8746 363.688V362.922L19.7099 362.785L19.4628 362.922L18.8314 362.785V362.457L18.5844 362.265V361.635L18.3647 361.498L18.4471 361.115L18.2824 360.787L18.4471 360.595L19.7099 360.212V359.911L19.2432 359.583L18.9961 358.515L20.0941 358.132L20.5334 357.803ZM97.7255 154.185L98.8235 154.431L99.1255 154.678L99.2079 155.307L98.9883 155.499L99.0707 156.539L98.6863 156.922L98.5216 157.36L98.2746 157.497L98.1922 157.825L97.6432 157.634L97.3412 157.771L97.0942 157.634L96.7098 157.689V157.88L97.0942 158.017V158.345L96.7922 158.866L96.2432 159.249L96.1608 159.577L95.7765 159.632L95.6942 159.194L95.9412 158.866L95.8589 158.154L96.2432 157.825V157.196L96.7922 157.004L96.6275 156.238L96.7922 155.198L96.6275 155.061V154.486L97.0118 154.157H97.7255V154.185ZM121.635 23.1838L121.718 23.3754L121.169 23.7586L120.455 24.6072L118.177 24.744L117.957 25.0176L117.71 26.0032L118.177 26.0578L118.808 26.5232L119.741 26.4684L120.29 26.8517H120.537V26.0032L121.086 26.14L121.388 24.7166L121.855 24.4429L121.937 24.6346L121.553 25.1546L121.251 26.1946L121.8 25.8115L121.882 26.0578L121.169 26.5779V27.0979L121.635 27.2347V27.3717L120.373 27.3169V27.6454L120.071 27.7822L119.988 28.1107L120.373 27.9738L120.675 27.5906L121.306 27.536L121.608 28.056H122.075L122.541 28.5213L122.239 29.0962L122.624 29.4792V29.8077L122.925 29.9447L123.722 29.8899L124.024 29.4246V29.1782H124.792L125.094 29.3698L125.561 30.2183L126.329 30.1635V30.41L125.945 30.6016L126.027 30.93L125.808 31.7785V32.107L126.11 32.4902L125.863 32.6271V32.8187H125.231L124.984 33.585L124.518 33.5304V33.2019H124.353L124.188 33.2566L124.271 33.3934H123.969V33.585L124.6 33.7218L124.765 34.4335L124.682 34.9536L125.149 34.762L125.369 35.0358V35.5559L124.984 35.6105V36.2676L125.616 36.459V36.1854H125.835L125.753 36.459L126.604 36.3222L126.988 36.5686V37.4719L127.455 37.8004L127.29 38.074L127.455 38.3204L126.906 38.6489L127.29 38.7035L127.757 38.3751L128.059 38.5119L128.69 38.3751L129.624 38.8951L129.459 39.2784H128.91L128.828 39.0047H128.663L128.58 39.3332L128.114 39.47H128.58V39.7436L129.349 40.1269L129.431 40.647L130.145 41.4955L130.063 42.0156H129.816L129.514 41.7419L129.294 41.7965L129.761 42.1798L129.678 42.563L130.063 42.6176L130.145 42.4262H130.365L130.667 42.7546L130.282 43.4115L129.98 42.9463H129.349L128.965 43.1377L129.212 43.521L128.91 43.7126L127.263 43.959L127.345 44.4791L127.126 44.5337L126.412 44.5885L125.863 44.0684L126.11 43.74L125.863 43.3567H125.478L125.396 43.6032V43.9316L125.78 44.6433H125.231L124.463 44.3969L123.447 43.5484H122.651L121.937 42.5082L122.651 41.9334L122.267 41.4681L122.569 40.6744L122.322 40.2911L121.553 39.7163V39.251L120.757 39.1142L121.141 38.1288H120.51L120.428 37.992L120.647 36.9518L120.482 36.377H120.784L121.031 35.8569H121.745L121.58 35.282L121.031 35.0904L120.482 35.5559L119.933 34.981L118.533 34.9262L118.698 34.2147H116.969L116.804 33.8314H115.706L115.788 34.0231L115.624 34.4883L114.91 34.5431L114.525 35.0632L114.141 34.5977H113.757L113.592 34.2147L112.796 34.4883L112.714 34.8716H112.549L111.753 34.0231L111.918 33.5576L111.451 33.0923L111.918 32.7091L112.082 32.326L112.933 31.669L112.549 31.2859L112.769 30.8204L112.604 30.629L111.588 30.6836L111.039 30.3004V29.9173L110.573 29.534L110.49 29.1508L109.777 29.014V28.6855L110.243 28.5487L110.875 27.837L111.341 27.9738V27.837L111.89 27.7822V27.4538L112.439 26.7421L112.522 26.0852L112.439 25.4283L112.055 25.2367V25.045L112.357 24.9904L112.522 24.7166L112.906 24.8534L113.29 25.6473H113.592V25.4557L114.224 25.4009L114.69 25.8662L115.157 25.921L116.09 25.4009L116.173 25.0176H116.722L117.188 25.2093L117.82 24.4976L120.016 24.4429L121.635 23.1838ZM304.349 17.2716L305.831 17.8463H305.365L305.447 18.6948L305.282 18.8318L305.502 19.2148L305.282 19.5981L305.667 19.7349V19.9265H305.859L305.941 20.6382L306.326 20.7751L306.243 21.1035L306.545 21.2403L306.71 22.3353L308.494 23.7586L308.576 24.0049L308.824 24.0597L309.592 24.9082L310.388 25.3735L311.157 25.5651L311.404 25.2915L311.871 25.2367L312.173 24.6618L312.722 24.3881L312.804 24.5798L312.42 24.7166V24.9082L311.953 25.2915L311.871 25.6747L312.42 25.8115L312.639 26.1946H312.941V26.8517L313.106 27.1253L313.353 27.2621L313.82 27.2075L314.204 27.5906L314.753 27.7276L315.055 27.9738V28.1655L316.153 28.6307L316.235 28.8772H316.4V29.2056L316.647 29.3972L318.212 30.1089L318.431 30.3826H318.733V30.5194L319.2 30.6562L320.765 31.6417L321.396 32.3532L321.643 32.408L322.576 33.6398L323.208 33.9683L323.126 34.4335L323.427 34.8168L323.729 34.9536L324.827 35.9937L325.129 36.0485L325.431 36.4318L326.282 36.9518L326.447 37.4719L327.161 38.0466V38.2382L328.012 38.4847L328.478 39.3332L329.275 39.9079L330.922 40.2911V40.7564L331.224 41.2218L331.141 41.4135L332.157 42.4534L333.475 43.1105L333.694 43.0557L334.078 43.5758L334.545 43.959L335.094 44.1506L335.726 44.7253H336.192L337.29 45.1086L338.773 46.395L339.624 46.915L340.008 47.4351L340.09 47.9005L340.859 48.7491L342.808 48.9407L343.824 49.5154L343.906 49.2691L343.137 48.8037L341.024 48.3384L340.859 47.8731L340.474 47.6267L340.31 47.1615L339.926 46.6962L338.608 45.7107L337.208 44.2053L337.29 43.822L337.922 43.5758L338.388 43.6306L338.471 43.8768L338.718 43.822L338.8 44.0136L338.635 44.1506L338.855 44.3421L339.02 44.2053V43.8768L339.871 43.822L339.953 43.4936L338.471 43.3567L338.169 43.1105H337.784L337.702 42.9189L336.988 42.5356L336.055 42.5904L335.204 41.8787L335.286 40.8386L336.467 40.9754L337.098 40.647V40.5101L336.384 40.5375L336.933 39.771L337.977 41.9882L344.153 41.8513L349.204 44.5885L355.682 50.1723L361.694 56.9878L362.161 60.4915L355.353 65.0899L355.133 66.13L358.071 71.3854L364.329 76.1754L364.11 76.9693L368.475 87.9454L369.518 92.8449L369.024 95.3082L373.663 99.8794L375.722 104.067L381.102 103.876L387.663 108.146L389.173 112.908L388.788 119.614L384.533 120.189L379.839 123.939L369.957 114.386L366.361 113.866L359.443 116.001L354.612 111.376L350.22 111.184L341.078 117.945L340.2 117.589L336.796 120.572L335.78 124.952L330.867 127.47L332.624 133.766L328.094 138.912L327.463 141.676L329.577 147.588L330.867 149.313L333.365 150.353L338.773 151.037L339.816 153.638L341.106 154.678L349.231 156.539L350.494 159.413L355.408 162.314L355.573 163.71L353.788 166.146L347.859 167.323L344.812 174.112L345.745 178.929L345.306 180.79L340.42 184.239L339.239 190.781L338.059 192.834L331.937 197.186L331.827 200.908L334.243 205.644L332.651 209.476L333.941 210.188L337.263 209.476L339.843 205.507L347.886 200.06L352.114 204.357L353.02 206.465L350.631 211.693L346.651 212.979L345.278 216.811L334.133 217.386L328.396 221.081L321.835 223.627L319.282 227.322V231.838L319.996 234.384L321.835 236.683L326.008 238.216L329.686 242.733L334.82 246.236L339.898 251.656L346.349 252.723L352.882 251.327L355.435 252.504L355.984 254.584L355.49 256.309L350.522 259.621L349.259 264.904L350.769 267.504L355.188 268.708L356.094 269.858L355.902 270.816L347.584 272.157L345.361 275.195L341.682 277.741L340.749 281.409L333.447 292.576L333.612 294.219L334.737 295.286L338.718 294.465L339.184 295.095L338.8 296.682L331.169 301.5L331.526 303.142L335.369 304.784L334.765 305.414L333.145 308.041L331.526 314.337L333.612 314.611L337.867 319.784L338.306 322.247L337.263 325.34L342.231 334.181L345.388 338.725L350.247 343.269L351.016 347.293L354.035 348.688L354.941 350.906L357.357 351.59L364.165 347.128L368.255 346.554L374.651 352.74L380.58 356.325L382.173 358.98L382.255 360.732L386.4 366.836H391.945L394.114 369.902L396.557 370.422L397.463 372.392L399 370.723L398.835 372.995L394.882 378.113L395.212 379.673L393.894 383.56L396.035 387.639L396.145 389.336L393.674 392.292L393.482 394.098L395.267 397.355L394.827 400.804L397.326 404.445L393.18 407.401L393.894 408.715L395.761 409.016L395.02 412.41L396.584 417.829L396.31 419.006L395.514 419.198L395.294 419.581H394.745L394.114 419.828L393.18 420.512L393.098 420.813L392.302 421.306L391.671 422.428H391.506V423.495L391.039 423.605L390.792 423.906H390.49L390.408 424.536L390.161 424.59V424.782L389.694 425.165L386.565 425.22L384.067 425.795L383.847 426.041L382.584 426.424L381.871 426.999L381.02 427.191L380.635 427.629L378.604 428.559L374.541 431.433L373.69 431.625L372.839 432.309L372.29 432.364L370.973 433.377L369.655 433.568L368.941 433.869L367.624 433.924L366.526 434.608L365.592 434.8L364.824 435.429L363.973 435.293L363.204 435.539L363.039 435.649V436.141H362.326V436.004L361.529 435.566L360.267 435.429L360.184 435.238L357.604 435.429L355.271 435.375L354.255 434.8L353.239 434.855L352.855 434.17H352.635L352.333 433.787V433.541L352.114 433.295L350.851 433.349L350.769 433.596L350.467 433.65L350.384 434.143L350 434.636L350.082 435.128L349.616 435.621V435.813L348.298 436.935L346.651 437.756L346.431 438.139L345.031 439.07L344.016 439.015L343.549 440.083L341.765 440.822L340.969 441.561L340.667 441.616L339.953 442.245L339.184 442.546V442.683H338.882L338.8 442.984H338.498L337.647 443.668H337.098L336.851 443.969L336.137 444.216L335.973 444.462L335.506 444.517L334.188 445.147L332.541 445.448L332.074 447.008L331.827 447.145V447.829L331.114 448.404L331.031 448.979L330.565 449.471L330.4 449.581L330.016 449.526L330.098 449.909L330.345 449.964L330.565 450.347V450.594L329.247 452.291L328.149 453.221L327.518 454.207L327.133 454.261L326.969 453.878L326.667 453.933L326.502 453.741L326.337 453.002L326.557 452.947V452.564L326.804 452.373V452.072L326.557 452.017L326.475 451.579L326.255 451.634L326.09 451.935L326.008 452.564L325.294 452.619H324.992L324.443 452.318L324.69 451.634L324.388 451.579L324.224 451.716L324.141 452.838L324.361 453.276L324.196 453.769L324.278 454.59L324.443 454.781H324.827V455.274L324.992 455.384L325.788 455.329V455.52L326.09 455.63L326.337 456.369L325.706 459.106L325.459 459.352L325.376 462.911L325.596 463.787V464.416L325.431 464.553H324.965L324.251 465.101L323.235 465.292L322.988 465.484V465.73L322.686 465.84L320.49 465.785L319.941 465.538L319.694 465.593L318.678 465.101L317.745 465.046L317.361 465.183L317.196 465.429L316.565 465.73L316.482 466.031L315.769 466.414L314.122 466.661L313.408 467.235L312.776 467.044V467.482L312.063 467.537L312.145 468.659H311.678L311.129 467.975L310.196 468.029L310.031 468.33L310.196 468.768L310.114 469.015L309.263 468.139L309.345 467.947L309.729 467.838L309.894 467.537L309.812 467.29L309.016 467.427L308.933 468.111L308.714 468.166V468.905H308.412L307.78 468.166L306.847 467.591L305.667 467.4L304.349 468.631L303.635 468.686L302.537 469.562L302.071 469.617L301.439 470H300.808L300.643 469.808L299.161 469.371L294.329 469.617L293.533 469.808L293.149 469.754L292.765 470H292.463L292.38 469.507L292.133 469.453L291.831 468.905L291.282 468.604L289.965 468.358L289.251 468.741L288.235 468.358L286.424 468.549L284.777 468.166L283.047 467.29L282.416 467.345L282.114 467.591L280.384 466.798L278.902 466.661L278.518 466.852L277.886 466.277L276.02 465.785L275.004 465.84L274.455 466.031L274.235 466.277L273.604 466.414L272.506 466.168L271.875 465.73L270.557 465.484L270.173 464.799L270.008 463.869L269.843 463.814L269.459 462.938L267.977 461.433L267.51 459.818L267.126 459.243L266.659 459.051V458.422L266.192 457.683L265.643 457.245L265.341 456.561L264.024 456.424V456.123L264.243 456.068L264.024 455.438L262.074 453.878L260.263 453.057L259.714 452.482L259.631 452.181L259.165 451.88V451.579L259 451.469V449.526L257.984 448.349L255.953 447.911L254.69 448.103L254.388 448.294L253.839 449.362L253.537 449.417L253.318 448.732L253.071 448.541H252.769L252.686 449.115H252.302L252.137 448.979V448.294L251.89 448.157L250.957 448.212L250.792 448.404L250.875 449.28L250.49 449.334L250.188 448.951L249.337 448.814L248.871 448.185H248.239L247.937 447.884L247.855 447.254L247.635 447.117L247.553 446.625L247.251 446.241L247.416 445.749L246.949 445.448L246.647 444.709L245.933 444.271L246.016 443.696L244.753 443.121L244.533 442.929L244.369 442.437H243.82L244.286 441.561L243.353 440.055L243.188 439.371L243.353 438.796L242.337 436.415L242.09 435.539V434.362L241.871 434.225V433.842L241.624 433.705L240.992 432.775L240.443 431.652V431.351L239.976 430.722L239.757 429.846L239.592 429.791L239.208 428.778L238.961 428.641L238.796 428.149L238.412 427.711V427.464L237.78 427.328L237.067 427.902L236.353 427.848L235.886 427.601L235.337 427.546L234.157 426.534L234.239 426.342H234.459L235.392 427.218L236.573 427.656L237.122 427.601L237.039 427.026L236.188 426.78V426.479H236.82L236.902 426.287L236.106 425.165L235.008 425.028L234.541 425.466L234.239 425.412V425.22L234.871 424.782L235.804 424.645L235.722 424.399L236.024 424.289L235.804 423.796L235.255 423.55V423.359L234.239 421.99L233.141 421.059L232.29 420.567L231.988 419.992L231.192 419.499L230.259 418.131L230.176 417.556L230.396 416.981H230.561V416.351L230.78 416.05L231.961 415.558L232.345 414.627L232.263 414.326L232.043 414.381L231.659 415.448L231.11 415.749L230.561 415.804L230.478 416.105L229.929 416.242L229.847 416.488L229.628 416.543L227.514 416.789L226.114 416.735L225.949 416.926H225.098L223.616 416.543L222.518 417.802L221.035 418.24L220.322 418.678L219.141 418.623L219.059 418.24L218.839 418.185L218.922 417.802L218.455 417.61L215.024 417.802L214.227 418.103L213.459 418.049L211.18 419.417L210.165 420.43L208.902 422.428L208.984 422.674L208.82 422.811L208.737 423.386V425.767L209.451 426.78L211.098 427.273L212.031 427.711L212.114 427.902L212.882 428.149V428.45L212.416 428.203L211.62 428.149L211.455 428.724L211.208 428.86L210.906 428.614H210.522L209.973 429.052L209.671 429.107L208.902 428.806L208.051 428.751V428.559L207.749 428.505L207.584 428.258L206.871 428.066L206.624 428.258V428.888L205.992 428.833L205.141 429.025L204.922 428.778L205.004 428.532L204.208 428.094L204.29 427.848L204.126 427.656L203.741 427.546L203.439 428.039L202.671 428.176L202.286 428.669L201.82 428.477L201.188 428.915L200.941 428.724L200.474 428.915V429.846L200.31 430.092L200.008 430.338L199.294 430.421L198.196 429.408L197.894 429.545L197.675 429.408L197.29 429.545L196.494 429.49L196.11 428.86H195.561L195.259 428.669H194.161L193.612 427.793L193.063 427.738L192.98 427.492L193.2 427.355L193.035 427.163V426.725L192.651 426.588L192.486 427.273L191.471 427.957L191.169 427.902V427.656L190.455 427.711L190.29 427.601L189.741 427.793L189.275 427.656L188.177 427.848L188.094 428.149L187.326 428.641L186.941 429.025L187.024 429.134L186.859 429.38L186.557 429.517V429.818L186.337 429.928L186.255 430.421L186.09 430.475V430.913L186.392 430.968L186.776 431.461L187.792 432.145L188.012 432.446V433.021L188.177 433.076L188.094 433.377L187.792 433.514L187.545 433.897L186.694 434.006L186.063 433.514H185.294L184.91 433.13L183.263 432.884L183.016 432.501L182.631 432.555L182.467 432.747L181.835 432.802L181.918 432.665L181.753 432.555L181.122 432.61L180.737 432.419L179.557 432.994L179.639 434.253L179.804 434.636L180.106 434.773L179.804 434.964L179.722 435.265L179.337 435.211L179.035 434.964L178.322 434.909L178.157 434.608H177.937L177.388 434.225L176.675 434.088L176.455 434.28L176.071 434.034L175.22 433.842L174.122 432.911L173.737 432.857L173.024 432.282L172.804 432.336L172.639 432.09H172.337L172.035 431.789V431.406L171.733 431.515L171.102 430.968L170.333 430.776L170.251 430.53L169.867 430.421L169.702 430.174H169.318L169.153 429.599L168.769 429.49L168.522 429.599L168.357 429.408L167.973 429.462L167.506 429.216L167.204 429.517L167.286 429.955L166.984 430.01L166.518 429.517L165.502 429.462L165.282 429.216V428.915L166.765 427.738L167.616 427.683V427.492L167.918 427.3L168.082 426.807L168 424.481L167.286 421.99L167.122 421.935L166.82 421.059L166.435 420.485L166.518 420.293L166.133 419.992L165.749 418.87L165.502 418.733L164.953 419.034H164.569L164.267 418.924L164.184 418.596L164.404 418.486L165.118 418.596L165.969 417.775L166.435 417.829L166.737 417.337H167.588L167.753 417.583L168.137 417.528L168.439 417.72L169.373 417.583L169.592 417.392L169.894 416.707L169.729 416.269L170.114 416.078L170.278 415.585L170.827 414.846L170.91 414.955H171.541L172.475 414.271L172.557 414.025L173.024 413.642L172.941 413.395L173.408 412.574L173.71 411.452L173.627 410.822L173.929 410.494V410.111L174.478 410.248L175.027 411.123L175.494 410.932L175.796 411.26L175.412 411.561L175.631 412.136L175.412 412.328V412.766L175.714 413.012V413.395L175.329 413.642H175.714L176.098 413.34L176.729 414.408H176.894V414.162L176.51 413.532V413.231L176.675 413.176L176.894 413.477H177.196L177.278 413.176L177.526 413.122L177.992 413.696L179.475 414.189L179.639 414.572L180.353 414.873L181.149 414.736L181.78 414.873L182.494 414.627L183.043 414.873L183.427 414.189L184.608 413.751L184.69 413.559L184.992 413.696L185.075 414.271L185.376 414.463L185.212 414.216L185.294 413.587L185.761 413.34L186.31 413.286L186.529 413.039H186.914L187.216 412.738L187.6 412.985V412.301L188.451 412.437L188.671 412.136V411.643L189.137 411.26L191.882 410.959L192.349 410.029L193.2 409.645L193.365 409.207L193.749 408.961L194.847 408.824L195.314 408.332L195.863 408.195L197.126 407.51L197.345 407.647L197.427 408.14L197.812 408.085V407.757L197.51 407.565L197.427 407.264L197.043 407.072L197.977 406.06L198.608 405.731L198.69 405.43L198.992 405.293V404.855L198.828 404.472L198.525 404.28L198.608 404.171L197.812 403.405L197.647 402.583L197.729 401.954L198.114 401.707L198.828 401.844L199.129 401.023L199.514 400.585L199.678 399.956L200.392 399.627L200.227 399.244L200.392 398.615L201.243 398.478L201.463 397.848L201.078 397.657L200.914 398.04L200.063 398.286L199.596 398.861L199.294 398.998L199.459 399.299L199.761 399.354L199.129 399.983L198.965 400.722L198.498 400.914H197.949L197.565 400.722L197.18 400.777L197.016 400.969V401.844L197.318 402.72L197.153 404.089L197.373 404.472V404.91L197.071 405.485L197.537 405.622L197.62 406.005L197.318 406.142L196.769 406.826L195.286 406.717L194.737 407.1L193.255 407.291L193.337 407.729L191.773 407.62L191.526 407.811L190.894 407.866L190.098 407.811L189.878 407.62L189.714 407.866L189.082 407.921L189 408.058L188.451 407.921L188.067 408.55H187.353L185.486 406.853L185.651 406.607L185.102 405.841L184.8 405.704L184.718 406.032L184.416 405.977L184.196 404.718L183.812 404.472L183.345 403.158L183.043 402.83L182.494 402.447L179.365 401.707L178.047 401.653L177.58 401.954L177.031 402.009L176.784 402.2L176.949 402.967L176.098 403.021L175.878 403.213L173.545 403.268L173.463 403.459L172.667 403.268L171.651 403.514L171.349 403.322L170.031 403.131V403.322L170.663 403.377L171.212 403.624L171.377 404.363L170.663 404.801L170.278 404.855L169.482 405.485H167.369L166.271 404.992H165.969L165.42 404.554L164.788 404.308L162.839 402.748L161.275 401.242L161.192 400.996L160.643 400.695L159.71 399.381L158.063 397.574V397.328L157.761 397.191V396.89L157.459 396.644V396.343L156.827 395.768L156.443 394.509L156.196 394.372V394.071L155.894 393.578V393.14L155.647 392.894L155.565 391.963L155.345 391.772L155.51 390.896L156.443 391.662L157.212 391.963L157.843 391.826L158.31 391.443L158.941 391.388L159.106 391.197L159.875 391.334L160.176 391.197L160.396 391.334L160.561 391.772L160.78 391.717L160.863 391.279H161.165L161.549 391.772L161.631 392.21L162.016 392.456H162.4L162.784 392.839L163.635 393.031L164.02 392.73L162.537 392.1L162.153 391.662L162.318 390.978L163.031 390.923V390.677L161.714 390.184H160.863L160.698 390.376H160.478L159.929 390.047H158.667L158.365 389.856L157.431 389.91L156.965 389.527L156.882 389.089L155.867 388.843L156.086 388.46L155.784 388.35V387.967L155.4 387.775L155.867 387.009L155.565 385.996L155.729 385.859V385.367L155.976 385.175L156.196 384.546V383.615L156.443 383.314V382.739L157.377 381.726L157.541 381.288L157.624 380.221L156.992 379.728L156.827 378.797L157.212 378.606L157.843 378.797L158.008 378.305L159.408 377.374L159.655 376.799L160.369 376.361L161.686 376.498L163.086 375.568L163.306 374.309L163.224 373.542L163.526 373.049V372.611L163.745 372.365L163.58 372.119L163.333 372.365V372.748L162.949 373.186L162.729 375.513L162.51 375.568L162.263 375.951L161.549 376.142L160.698 375.951L160.231 376.006L158.2 377.265L157.267 377.511L156.498 378.14L156.416 378.715L156.114 378.962L156.031 379.974L155.812 380.221V381.042L155.263 381.425L155.18 381.672H154.878L154.412 382.794L154.027 383.04L154.11 383.724L153.396 384.162H152.765L152.298 385.23L151.831 385.613H151.118L150.816 385.367L150.102 385.175L149.251 384.354L148.949 384.409L148.318 384.08L147.384 384.217L146.835 383.533L145.518 382.903L145.353 382.41L145.6 381.973L145.765 381.781L146.533 381.535L146.78 381.042L147 380.987V380.412L146.835 380.221H146.369V379.728L146.149 379.345L145.902 379.4L145.6 379.153L145.051 379.099L144.584 378.524L144.502 378.14L143.569 378.086L143.184 378.277L143.267 378.469L144.282 378.332L144.447 378.907L145.298 379.591L145.682 380.221L145.6 380.713L145.216 381.014L144.969 381.781L144.118 382.465L144.035 383.341L144.502 383.724V383.971L145.435 384.409L146.533 385.284L147 386.352L147.714 386.735L148.18 386.79L148.812 387.556V388.131L148.565 388.186L148.729 388.432L148.427 388.679L148.345 388.98L147.631 389.472L146.918 389.719L146.835 389.91L145.518 390.403L145.271 390.348L144.969 390.649L142.224 390.513L141.29 390.704L138.627 390.266H137.776L135.278 389.582L133.494 389.39L132.094 389.007H130.777L130.392 388.816L130.31 388.952L130.008 388.898L129.624 389.199L129.541 389.445L128.91 390.02H128.526L128.361 389.773H128.059L127.757 390.348L127.29 390.786L126.192 390.485L125.561 390.102L124.078 390.047L123.694 389.856H122.377L120.647 390.622L120.4 390.868L119.851 390.759L119.686 390.567L118.671 390.622L118.286 390.868L117.573 390.759L115.541 391.334L114.773 391.826L114.224 391.963L112.028 393.715V394.098L111.808 394.153L111.726 394.591L111.012 394.783L110.929 395.357L110.627 395.795L110.71 396.48L110.929 396.781L110.847 397.164L111.396 397.492V397.793L111.561 397.848L111.643 398.231H111.808L111.89 398.806L113.208 398.861L113.455 399.162L112.741 399.025L112.439 399.217L112.357 399.846L111.973 400.093L111.753 400.777H111.588L111.369 401.16H111.122L110.737 401.844V402.419L110.573 402.474L110.49 402.967L110.106 403.405V404.28L111.122 404.527V404.718L110.82 404.855L110.271 405.485L109.639 405.676L109.255 406.06L108.075 408.058L107.91 408.496L108.761 408.988L108.678 409.29L107.663 409.235L107.196 409.426L105.631 409.18L105 409.317V409.125L104.698 408.934H104.067L103.82 409.18H103.518L103.216 408.934L102.831 409.07L102.118 409.016L101.733 409.262L101.651 410.275L102.365 410.658V411.096L102.145 411.233L101.431 411.178L101.349 411.315L100.58 411.123L100.278 411.507H99.5098L99.4274 411.753L99.6471 411.89V412.191L99.1804 412.437L99.0157 412.629V413.067L98.7138 413.258L98.1647 413.204L97.8628 412.903V412.656L97.5608 412.465L97.2589 412.656H96.7098L96.5451 412.465L95.3648 412.41L95.0628 412.164V411.862L95.5295 411.671L95.4471 411.37H94.7334L94.0196 411.069V411.37L93.8 411.507L93.4157 411.616L92.4824 411.561L92.3177 411.315L92.5373 410.685L92.455 410.576L91.2745 410.521L91.1922 411.014L90.6432 411.151H89.7922L89.3255 410.658L87.2942 410.603L86.8275 411.041L86.6628 411.671L87.5961 412.164L87.6784 412.355L87.5137 412.547L87.1295 412.684L86.4981 412.547L86.3334 412.738L85.4824 412.793L85.0157 413.231L84.7686 413.97H84.2197L83.8353 414.353L83.451 414.299L82.7373 414.791V415.038L82.5177 415.092L82.2157 415.585L82.4628 415.913V416.351L82.0785 416.653L81.4471 416.844L81.6118 417.282L81.8314 417.227L82.2157 417.419L82.051 417.857L82.3529 418.185L82.6549 418.24L82.7373 418.87L82.4353 418.924L81.5843 418.432H81.2824L80.8157 418.623V418.815L80.4314 418.87L80.2667 418.733V419.308L79.9647 419.499L79.5804 419.308L79.4157 418.924H79.0314L78.949 419.417L79.3334 419.718L79.0863 419.855L79.1687 420.539L78.6196 420.977V421.361L78.9216 421.552V421.935L78.4549 422.127L77.8235 421.497L76.9726 421.634L76.753 421.881L76.1216 421.634L75.8197 421.881H75.4353L75.1334 421.388H74.9687V421.196L74.749 421.142V420.95H74.2L74.1176 420.32L71.5373 419.746V419.006L70.2197 419.143L70.1373 418.76L69.5882 418.514L69.3412 418.897L68.8746 418.705L68.2432 418.952H67.6941L67.2275 419.28L66.4314 419.225L65.6628 418.651L65.2784 417.966L64.6471 418.021L63.7961 417.72L63.4118 417.145L62.5608 417.337L62.3961 416.899L62.1765 416.762L61.5451 416.899L61.2981 416.707H59.9804L59.7334 416.57L59.1844 415.831V414.572L59.7334 413.833L60.749 413.45V413.149L60.5295 412.82L60.9137 412.711V411.589L60.1177 410.768L59.8981 409.645L59.4314 409.153L59.3491 408.852L59.5687 408.797L59.651 408.414L59.1844 407.729L59.102 407.346L58.553 406.771L56.2196 406.58L55.5059 406.142L54.9569 406.196L54.7373 405.759L53.9412 406.06L53.3098 405.813L53.2275 405.567L52.9255 405.676L52.7059 405.129L51.9098 404.636L51.3608 404.883V405.129L50.7294 405.184L50.6471 404.937L51.1138 404.883V404.636L51.4157 404.445V404.198L51.1961 404.062V403.678L50.9491 403.24L50.4 402.857V402.611L50.9491 402.173L52.0471 401.981L52.2942 401.68L52.9255 401.872V401.489L52.2942 401.434L52.4589 401.051L52.0745 400.859V400.476L52.6236 400.229L53.4745 400.284L54.7373 400.668H56.1373L56.9883 400.859L57.5373 401.297V401.543L56.6863 402.282L56.9334 402.529L57.0157 403.021L57.5647 403.405L58.1961 403.459L58.2785 403.651H58.9099L59.2118 403.35L60.0628 403.158L60.1451 403.295L59.8432 403.432L59.9255 403.733H61.2432L61.8745 403.158L61.9569 402.474L61.7922 402.173L61.0236 401.68H60.6393L60.0079 401.379L60.7765 400.75L60.6942 400.257L60.8589 400.202V399.819L60.6942 399.244L61.9569 399.189L62.1765 398.943L63.0275 398.998L63.1099 398.861H63.4941L63.4118 399.189L61.0784 399.381L60.9961 399.819L64.0432 399.764L63.7961 398.888H64.1804L64.2628 399.08L64.6471 398.943L65.1137 399.135L65.0314 399.326L64.1804 399.272V399.463L64.2628 399.846L65.3609 400.531L66.2942 400.585L67.2275 400.969L68.7098 400.832L69.4785 401.16L69.9451 400.969H70.6589L70.8784 401.16L70.9608 401.653L70.4118 401.79L70.2471 402.036L70.549 402.912H70.7686L71.0706 403.487L71.2902 403.542L71.2078 404.171L71.5098 404.417L72.6079 404.116L72.9099 403.815L73.5412 404.062H73.8432L74.0079 403.87L74.6392 404.007L74.8039 403.706L75.5725 403.76L75.8745 403.952L76.1765 403.76L76.5608 403.897L76.6432 403.405L77.4118 403.103L77.1099 402.967L76.5608 403.268L76.0118 403.158L74.9137 403.213L73.5962 402.529H72.7451L72.2785 402.091L71.5098 401.954L71.2078 401.653V401.352L72.306 401.16L72.553 400.722L73.4863 400.147L73.5687 399.135L73.8157 398.751L74.1176 398.806L74.2 399.189L74.6667 398.888L74.9687 399.025L74.8039 399.217L75.0236 399.463L75.9569 399.518L75.655 398.888L75.7373 398.697L76.451 398.751L77.0824 398.368L77.3294 397.629L78.1804 397.821L78.5648 398.313L79.2784 398.505L79.1137 399.189L79.3608 399.436L79.4431 399.874L81.3099 399.928V399.682L79.7451 399.49L79.4431 399.189V398.888L80.6236 398.012L81.0902 397.383V396.945L81.2549 396.808H82.4353L82.902 397L83.2863 396.863L83.753 396.37L83.9177 395.193L84.2197 394.81L86.6354 394.865L87.1843 395.303L87.349 395.74L87.8157 396.042L87.8981 396.233L87.7334 396.425L88.0353 396.616V396.863L88.255 396.917L88.4745 397.492L88.9412 397.739L89.3255 398.313L89.6275 398.368L88.9138 397.355L88.9961 396.972L88.5294 396.781L88.3647 396.288L88.1451 396.233L88.2275 395.658L87.2118 394.208L87.8431 393.825L89.1608 393.633L89.5452 393.387L90.0941 393.441L90.3138 393.305L90.6981 393.688L91.3295 393.387H91.1098L90.7255 393.058L89.5452 392.921L89.1608 392.976L88.0628 393.606L87.6784 393.496L86.3608 393.551L85.9765 394.18L85.1255 394.564L84.3294 394.372L84.1647 394.235L84.3294 393.989V393.414L84.1098 392.73L84.2745 391.416L84.6589 391.169L85.4549 391.361H85.7569L85.8393 391.169L85.2902 391.033L84.9059 390.649H84.3569L83.6431 390.02L82.4628 389.637V389.253L82.5451 388.816L82.7648 388.624L82.8471 387.748L83.0667 387.556L82.9843 386.982L82.7373 386.872L82.8196 385.942L83.2863 385.503V385.011L83.753 384.819L83.3687 384.381L83.753 383.259L84.1373 382.876L85.5373 382.438L86.0863 382L86.6354 381.37V380.741L86.8824 380.494L86.9648 379.81L87.349 379.482L88.6118 378.797L90.2588 378.606L90.8902 378.305L91.4393 378.359L91.3569 378.168L88.7765 378.305L88.3922 378.606H88.0079L87.4589 379.044L87.3765 379.372L87.0745 379.427L86.6902 379.81L86.5255 380.631L85.8118 381.453L85.3452 381.836L84.3294 381.89L84.2471 382.328H83.6981L82.6001 383.341L82.1334 383.013L81.9138 382.575L81.2 382.137V381.836L80.898 381.507L80.9804 381.124H80.8157L80.651 381.37L80.898 381.754L80.7333 382.246L79.4706 381.863H78.6745L78.0432 382.055L77.2746 382.739L77.0275 383.232L76.3138 383.56L76.0667 383.122L75.7647 382.931L75.8471 381.562L75.9294 381.233L76.2314 381.042V380.796L77 380.303L77.0824 379.865H76.8627L76.5608 380.303L75.7098 380.878L75.6275 381.453L75.4628 381.589V382.465L75.6275 382.657L75.4628 383.04L75.9294 383.286L76.2314 383.916H76.6157L77.1647 383.423L77.549 383.369L78.949 382.547L79.251 382.602L79.8824 382.41L80.102 382.794L80.4039 382.848L80.4863 383.04L81.1177 383.286L81.749 383.779L82.051 384.409L81.9687 384.655L81.4196 384.901V385.093L81.5843 385.23V385.914L81.8863 386.352L81.804 387.118L82.0235 387.31L82.1059 387.994L81.7216 388.295L81.4196 388.241L81.2549 388.624L81.4746 388.816V389.308L81.9412 390.376L83.1216 390.868L83.753 391.361L83.8353 391.662L83.5334 392.483L83.753 393.113L82.902 394.673L82.9843 395.74L82.6824 396.233L82.3804 396.288L82.1334 396.042H80.8706L80.0197 396.726L79.9373 396.972L79.0863 397.547H78.7843L77.9334 396.671L77.3843 396.48L76.6706 396.534L76.1216 396.781L75.9569 397.027V397.52L75.4902 397.711L74.3922 397.41L74.2275 397.219L73.5137 397.164L73.1294 397.465H72.3333L71.8667 397.958L70.3843 398.587V398.697L70.0823 398.833L69.3687 398.779L69.2863 398.916L69.0667 398.669L68.8196 398.724L68.7373 398.615H68.1883L67.9687 398.368H67.4197L67.3372 398.177L65.7726 397.602L65.0589 397.164L64.9765 396.917H64.7569L65.1412 396.288L65.2236 395.549L65.0589 395.494L64.8942 396.315L64.5921 396.753L64.2079 396.562H63.6588L63.1922 396.179L62.8079 396.233L62.3412 395.932H61.8745L62.0392 396.179H62.4236L62.8079 396.48L62.0942 396.972L60.9961 396.781L60.7765 397.164H60.6118L59.8981 396.972L59.6785 396.397L59.3765 396.261L59.1569 396.452V396.89L59.4588 398.396L59.9255 398.149L60.2275 398.204L59.4314 398.833L59.0471 398.779L59.2941 398.396L58.9922 397.711L58.9099 396.945L57.0431 397.136L56.7412 398.779L57.1256 398.916L58.4432 398.779L58.3608 398.97L57.0981 399.107L56.1648 398.916L56.2471 398.724L56.4667 398.779L56.7687 397.136L56.0549 397.273L55.5882 397.082L55.3412 396.644L55.5882 395.905L54.4079 394.837L54.2432 393.825L53.6942 393.523L53.3098 393.578L53.0903 393.195L52.8706 393.25L52.953 393.633L53.255 393.879L52.8706 394.18L53.0353 394.947L52.7883 395.138L52.404 394.947L52.1569 395.084L51.6902 395.576L51.8549 395.823L51.6902 396.261L51.1412 396.179L51.0588 395.439L50.2628 394.755L50.098 394.947H49.2471V395.138L48.9451 395.275L49.0275 395.713L48.8628 395.85H48.3961L47.7648 395.604H47.2981L46.9138 395.85H46.1177L45.5686 395.604L45.4863 395.111L45.1844 394.728L44.0039 394.591L43.5373 394.892L43.4549 395.193L43.8392 395.439V395.686L44.0589 395.932L44.3059 395.987L44.1412 396.425L44.2236 396.863L44.6078 397L45.1569 397.492L46.6393 397.629L46.8863 398.012L45.8706 398.341L45.7883 398.97L46.2549 399.299L46.3373 399.6L45.7883 400.093L45.2392 400.284L45.6236 400.585L45.7883 401.352L44.4706 401.598L43.9216 401.543L43.702 401.844L43.9216 402.337V402.775L43.1529 403.076L42.9059 402.83L42.8235 402.337L41.9726 401.762L42.1373 401.133L41.3413 400.832L41.506 399.956L41.2039 399.764L41.2863 399.025L40.9844 398.833L40.902 398.587L41.451 397.958V397.383L41.2314 397.246L41.451 396.562L39.1726 395.987V395.357L39.3922 395.166L39.3098 394.591L38.1294 393.523L37.5804 393.277L36.2628 393.222L36.0431 393.469L35.9608 394.344L35.6589 394.399L35.4942 394.646L34.8628 394.591V394.29L35.5765 393.989L35.6589 393.414L34.7256 392.839L34.1765 392.784V392.593L33.3255 392.018L33.2432 391.826L33.4079 391.58L33.2432 391.443L32.7765 391.388L32.6118 391.142H32.1452L32.3922 390.321L32.0902 390.129V389.828L32.3922 389.773L32.4746 389.965L33.1883 389.91L33.902 390.102L36.1805 390.047L36.6471 390.184L37.2785 390.677H37.5804L37.8001 390.868L38.2667 390.814L38.5137 390.239L38.9804 389.746V388.925L39.2275 388.542V387.337H39.5843V387.036L39.2824 386.845L39.502 386.024L40.0511 386.215L40.2981 386.078L40.3805 385.75L40.8471 385.695L41.1491 385.996L41.9451 386.133L42.3294 385.202L42.9608 384.874V384.436L43.3451 384.135V383.889L44.0589 383.314L44.6078 383.122L44.9098 382.629L45.5412 382.192L45.9255 382.383H46.6941L46.8588 382.192L47.2432 382.137L48.4236 382.52L48.6706 382.082L49.055 382.027L49.6039 382.328L49.8236 382.821L51.3059 383.013L51.6902 382.684L51.8549 382.301L52.7883 381.617V381.37L53.0079 381.233L52.9255 380.796L53.3922 380.604L53.5569 380.166V379.591L53.255 379.345L53.3373 378.715L53.1726 378.223L53.3373 378.168V377.785L53.1726 377.292L52.9255 377.155L53.1726 375.157L53.3922 374.965L53.2275 374.035L53.3922 373.104L52.9255 372.42V371.927L52.4589 371.489V371.051L52.8431 370.559L52.6236 370.504L52.5412 370.75L52.3216 370.805L51.9373 370.422L51.7726 369.299L52.0745 368.998V367.931L51.8549 367.684V367.192L51.6354 366.891L51.1687 365.057L50.6196 364.236L50.3177 363.36L49.3844 362.593L49.0824 361.964L48.6981 361.635H48.3961L48.0118 362.018L46.2275 362.073L46.0079 361.936L45.9255 362.566L45.7608 362.703L45.5961 362.648L45.6785 362.073L44.8275 361.581L43.6471 361.827L43.2628 361.772L42.8785 362.21L42.5765 362.265L42.4941 362.018L42.9608 361.581L42.6588 360.814L41.4785 360.677L40.7647 360.869L40.6824 360.677L40.8471 360.486L40.5451 360.431L40.3805 360.814H39.9961L39.9137 360.951H39.5843V360.568L38.2667 360.869L38.1843 360.677L38.349 360.623V360.376L37.4157 359.555L35.3844 359.61L34.5334 360.103L33.5177 359.665L32.9687 360.349L33.051 360.677L32.7491 360.623L32.6667 360.869L32.502 360.814L32.5844 360.431L32.4197 360.376L32.3372 359.692L31.8706 359.938L31.651 360.513H31.3491L31.1844 360.13L30.6353 359.884L29.6196 360.568H29.153L28.5216 361.197L27.2589 361.526L27.0392 361.964L26.4903 362.155V362.539L26.7098 362.73L26.4903 362.977L26.2432 362.922V361.416L25.7765 361.663L25.2275 361.608L24.7608 362.292L23.9922 362.539H23.6902L23.0589 361.909V361.225L23.8275 360.732V360.404L23.9922 360.267H24.3765L24.5412 360.075L24.6235 359.254L24.8432 359.062L24.6785 358.378L24.2941 358.241L24.1294 357.858L23.7452 357.612L23.5805 356.791L24.3765 356.161H24.6785L24.8432 356.407L25.2275 356.462L25.6118 355.641L26.1608 355.258L26.4628 354.683L26.3804 353.999L25.8314 353.944L25.9961 353.506L25.2001 353.26L25.1177 352.685L23.8549 352.931L23.9373 352.493L24.1569 352.438L24.7882 351.563L25.9687 351.125L26.051 350.933L26.7647 350.687L27.0667 350.249L27.3686 350.112L27.9177 350.249L27.8353 350.741H28L28.6314 350.358L29.4001 350.604L30.0314 350.112L31.8158 349.729L32.1177 349.537L32.2824 348.962L32.6667 348.771L32.8314 348.387L33.6824 348.251L34.3137 347.758L34.4785 347.074L34.8628 346.937L35.0275 346.499H35.4118L35.5765 346.307H36.5922L37.6079 345.924L38.404 345.869L38.8706 345.486V345.103L38.0746 344.72V344.528L40.0236 343.762V343.433L39.8039 343.241H38.8706L38.6235 342.995L40.1059 342.94L40.1883 342.749L39.8863 342.503L40.655 342.311L40.5725 342.119H40.2706L40.353 341.873L41.1216 341.736L41.2039 341.873L42.2196 341.928L42.5216 341.736L43.5373 341.681L43.702 341.928L44.1687 341.791L45.0197 342.284H45.8706L46.1726 342.092L46.0079 341.325L46.3099 341.134H46.9412V340.751L47.7098 340.559L47.5451 340.313L47.8471 339.875L47.1334 339.628L47.051 339.382L47.6824 339.191V339.054L48.2314 338.999L48.3137 338.561H48.5608L48.7804 338.944L49.4118 339.245L49.7138 338.999L50.0157 339.245L50.4 339.054L50.6471 339.245L52.7608 339.136L53.3098 338.698V338.068L53.0903 338.014L53.1726 337.63L54.1883 337.192L54.353 337.576H55.204L55.3687 337.767H55.6157L56.1648 337.329V336.7L56.3295 336.508L56.0275 336.371L56.1098 335.988L55.8902 335.796V335.413L55.6706 335.276V335.03L55.8354 334.893V334.291L56.302 334.045L56.604 333.47L56.1373 333.278L55.2863 333.333L55.5059 332.567L55.0393 332.074L54.6549 331.937V331.745L56.2196 330.733L57.6197 329.474V329.282L57.3177 329.09L56.3843 329.227V329.036L56.604 328.899L56.5216 328.461L56.7687 328.406L56.604 328.214L56.7687 327.831L56.1373 327.777L55.6706 327.256H55.3687L55.1216 327.065L55.5882 326.49L55.5059 326.107L56.0549 325.669L56.302 325.176L57.7844 324.41L57.9491 324.163L57.8667 323.917L57.2353 324.109L56.7687 324.054L57.5373 323.37L58.0863 323.424L58.8 323.233L58.9647 323.041H59.4314L59.7334 323.534L59.8981 323.397L60.2001 323.534L60.0354 323.972L60.5843 323.917L60.749 324.054L61.2981 323.862L61.7647 324.191L62.6981 323.944L63.0824 324.328L63.7138 324.273L64.3451 324.656L64.8118 324.601L65.1137 325.614L65.3334 325.559V325.176L65.7176 324.793L66.5138 325.121L66.8981 324.875H67.3647V324.547L67.6118 324.492V324.684L67.9138 324.875H68.1608V324.629L68.7098 324.684L69.0118 325.176L69.0942 324.492L69.7256 324.738L70.0275 325.313L69.8628 325.45L69.7804 326.764H70.6314L70.7137 326.955L72.0314 327.284L72.2785 327.475L71.9765 327.53L70.5765 327.147L70.0275 328.461L69.7804 328.406L69.0667 329.172L69.149 329.939H69.5334L69.451 330.185L69.8353 330.514H70.1373L70.6863 330.076L70.9883 330.322L71.2902 330.13L71.4549 330.322L71.3725 330.76L71.6745 330.952L71.8941 331.389L72.1961 331.253L71.8941 331.006L72.0588 330.623L71.9765 329.994L72.8274 329.939L73.2118 330.322H73.6785L73.5962 329.939L73.8981 329.747L75.3804 329.556L75.5451 329.172L76.0118 328.926L76.1765 328.488L76.8902 328.817L76.9726 328.187L77.7687 328.242L78.0706 327.558L78.3726 327.749L78.6745 327.558L78.9765 328.132H79.1412L78.9765 327.119L78.8118 326.983L79.3608 326.791L79.9098 326.353L80.0745 325.915L80.5412 325.724L80.4589 325.477L79.9922 325.422V324.985L79.4431 324.656L79.3608 324.273L79.5804 324.027L79.6628 323.589H79.9647L79.8824 323.397L80.1844 323.26L80.3491 322.576L80.651 322.439L80.898 322.576L81.6118 322.521L81.9138 322.713L82.0785 323.096L82.8745 323.342L83.0942 323.78L82.9295 325.039L83.149 324.848L83.5334 324.902L83.9177 325.669H84.851L86.0314 325.422L86.5804 325.751H86.9648L87.1295 325.258L88.1451 325.067L88.3647 325.313L88.6667 325.176L89.051 325.313L89.6 325.121L89.5177 325.45L90.0667 325.641L90.2314 325.505L90.6157 325.641L91.3295 325.587L92.2628 325.97V325.641L91.4942 325.395L91.0275 324.957L90.8628 324.081L90.6432 323.507L90.3961 323.37V322.74L89.298 322.111L89.4628 321.974L89.298 321.289L89.5452 321.043V320.797L89.9294 320.468V320.277L90.2314 320.14V319.756L90.6157 319.565L90.7804 318.99L91.2471 318.607L91.7137 318.552L92.0981 318.169L92.9491 317.923L93.1138 317.676H93.8275L94.4588 317.43H94.7059V317.567L95.5569 317.43L95.7216 317.622H95.9412L97.753 316.746L98.2196 315.487L99.0707 315.295V314.857L99.3726 314.611L99.2902 314.364L99.9216 314.31L100.141 313.68L100.526 313.352V313.023L100.91 312.886V312.749H101.212L101.843 311.107L102.475 310.423L102.694 309.93L102.612 309.355L103.71 308.726L103.792 308.233L103.957 308.178V307.549L103.573 307.111L103.106 307.056L103.024 306.81L103.408 306.426L103.792 306.372L104.89 305.742L105.275 304.593L105.192 304.155L105.659 303.635L106.976 304.511L107.141 305.003L108.075 305.195L108.294 305.386V305.77L108.459 305.961H108.926L109.09 306.153L109.557 306.016L109.722 306.208L109.557 306.344L109.639 306.536H110.49L111.204 307.029L111.369 307.658L112.082 308.178L112.302 308.425V308.753L112.604 308.999L112.686 309.492L112.522 309.629L112.439 310.204L112.604 310.395V310.888H112.769L113.071 310.505V309.246L113.537 308.753V307.877L113.29 307.193L112.576 306.755L112.192 306.7L111.808 307.029H111.588L111.973 306.208L112.055 305.523L111.753 304.894V304.264L111.039 303.58V303.333L111.341 303.087V302.567L111.588 302.074L111.506 301.636L111.671 301.582L111.753 301.089L112.137 301.034L112.302 301.226L113.4 301.363L113.949 301.034V300.788L114.196 300.596H114.965L115.816 300.022L117.929 300.213L118.149 299.885L117.765 299.502V299.173L117.929 299.118H121.361L122.843 298.79L123.227 298.407L123.777 298.79V298.708L126.192 298.954L126.659 298.434H126.961L127.263 297.804L128.443 297.366L129.541 297.503L130.173 297.832L130.255 298.215L130.09 298.461L130.255 298.708H131.051L131.353 299.036L131.6 299.666H131.765L131.929 299.282L133.329 299.666L135.663 299.419L136.129 298.981L137.529 298.407L138.38 297.585L138.682 297.531L138.847 296.655L139.314 296.135L139.698 295.177L140.247 294.684L140.631 294.629L141.098 294.109L141.647 293.972L141.949 293.726L142.498 292.522V292.084L142.251 291.947V291.7L142.553 291.564L142.718 290.879H143.102L143.02 291.755L143.184 291.947L143.651 292.139H144.282L144.831 291.81H145.133L145.435 291.372H145.737L146.204 290.688L147.522 290.168L148.784 288.826L149.416 287.869L149.498 287.485L151.228 286.226L151.392 285.843L152.408 284.967L153.506 283.434L154.357 282.914L154.439 282.285L155.29 281.217L156.388 280.834L157.102 280.314L157.651 280.56L157.733 280.943L158.035 281.135L158.282 282.203L158.584 282.449L159.133 282.504L160.067 282.312L161.247 281.245L161.494 281.299L161.577 281.819L161.741 281.874L162.592 281.737L164.926 280.204L165.227 279.63L166.024 279.192L166.106 278.945L166.49 278.754V278.562L166.957 278.425L167.753 277.796L167.835 277.412L168.549 277.221L169.565 276.153L170.745 275.469V275.141L171.212 274.648L171.294 274.265L171.843 273.827L172.859 273.307H174.039L174.753 273.115L175 272.869L175.467 272.923L175.851 272.677L175.933 272.294L176.784 271.61L177.333 271.418L179.365 269.967L180.216 268.626L180.133 267.86L180.38 267.805V267.613L180.929 267.093L181.231 267.039V266.847H181.478L181.561 266.519H181.726V266.327L182.028 266.081L182.11 265.506L181.945 265.123L182.494 264.548L182.192 264.165L182.275 263.918L182.522 263.781L182.604 263.453L182.988 263.261L184.169 263.316L184.388 262.933L184.635 262.878L185.486 260.853L185.404 260.606L185.569 260.086L186.337 259.949V259.758L186.804 259.511L187.188 258.252L187.902 257.814L188.753 256.473L188.973 256.035V255.351L189.22 255.296V254.968L189.384 254.831V254.311L189.686 253.736L190.4 253.024V252.696L190.784 252.176L191.086 250.643L191.388 250.205L191.608 249.384L191.855 247.413L192.02 247.358L192.733 245.962L192.816 244.867L193.118 244.347V243.964L193.914 242.869L193.996 242.486L194.298 242.24V241.72L194.682 241.09L194.765 240.515L195.067 240.269L195.149 239.831L195.396 239.64L196.11 239.503L196.274 239.311L195.808 238.545V237.97L195.506 237.395L195.973 236.875V236.492L195.726 236.355L195.89 235.917H196.055L195.89 235.725V235.205L196.357 235.151L196.604 234.767L196.439 234.576L196.274 233.289L196.577 232.906L196.741 232.003L197.208 231.565V231.236L196.988 231.182L196.906 230.935L196.988 230.607L196.741 230.278L196.906 230.032L197.071 228.554L197.455 227.651L197.373 227.131L197.757 226.802L197.922 225.707L198.635 223.791V223.271L199.569 221.793V221.218L201.133 220.315V218.536L200.969 217.961L201.051 216.291L200.749 213.855L200.529 213.144V212.24L200.145 210.461L200.31 209.175L200.557 208.792L201.326 208.655L201.408 209.558L202.122 209.804L202.286 210.051L202.588 209.859L202.753 210.105H202.973L203.137 209.859H203.439L203.824 209.476L204.455 209.613L204.757 209.859L205.306 209.804V210.051H205.69L206.953 209.284L207.2 208.901L207.914 208.463L208.216 208.326L208.847 208.463L208.929 208.08L209.396 207.697H209.78L210 207.368L210.467 207.314L210.549 207.122L210.082 206.875V206.301L210.329 205.972L211.263 205.835V205.644H210.796L211.18 205.206L211.482 205.151L211.4 204.713L211.867 204.658L211.784 205.096L211.949 205.343L212.416 205.534L212.498 205.288H212.663L212.745 205.671L212.992 205.726L213.294 205.343L213.541 204.631H213.761L214.227 203.81L214.859 203.235L215.71 203.044L216.259 202.715H216.726L216.945 202.907L217.247 203.673L217.714 204.056L218.51 203.81L218.894 203.29V202.578H218.675L218.592 203.399L218.29 203.646H217.906L217.439 203.126L217.22 202.359L216.973 202.222L216.424 202.168L215.655 202.496H215.188L214.008 202.168L213.761 202.304L213.541 202.742L212.745 203.317H212.443L212.196 203.126L210.878 203.372L209.478 204.084L209.176 203.947L208.71 204.275V204.467L207.694 204.604L207.227 205.042L204.894 205.37L204.126 205.753H203.494L202.643 206L202.341 206.246L201.024 206.301L200.941 206.438L198.745 206.109V205.918L198.031 205.206L197.867 204.111L197.647 203.974L197.098 202.25L196.714 201.812V201.237L196.247 200.717L196.027 199.896L195.726 199.759L195.561 199.321L195.396 199.266L195.314 198.746L194.765 197.98L194.6 197.268L194.298 197.022V196.584L194.078 196.392L193.914 195.763L193.529 195.325L193.447 194.695L193.063 194.449L192.816 193.819L192.431 193.244L192.129 193.053V192.724L190.647 191.328L190.565 190.808L190.345 190.48L190.565 188.947L190.784 188.564L190.867 187.934L191.086 187.688L191.004 187.442L191.224 187.113L191.306 186.292L191.69 185.854L191.608 185.471L191.992 184.841L191.91 183.883L192.129 183.637L192.294 182.871L193.008 181.912L193.31 180.818L194.161 179.476L194.243 179.23L194.078 178.847L194.71 178.409L194.792 177.971L195.039 177.779L194.957 177.259L196.686 176.548L197.153 176.164L197.373 175.59L198.004 175.07L198.388 174.495L199.02 174.303L199.651 173.537L200.502 172.962L200.584 170.909L200.337 170.143L200.42 169.376L200.118 168.555L200.2 168.117L200.914 167.597L200.996 167.214L201.298 167.022L201.463 166.639L201.765 166.584V166.913L201.463 167.05V167.433L201.161 167.679L201.326 168.582L201.957 168.637L203.055 168.254L203.302 168.008L203.851 167.816V167.433L204.153 167.296L204.235 166.858L204.4 166.721L205.031 166.858L205.416 166.53L205.718 165.955L206.02 165.9L206.322 165.462L206.541 165.407V165.79L206.843 165.927L207.31 165.736L207.475 165.298L208.792 164.86V164.614L209.094 164.285V163.847L209.341 163.464L209.726 163.272L210.027 161.986L210.247 161.657L212.196 161.411L212.827 160.699L213.212 160.563L214.063 159.221L214.777 159.085L214.941 158.838L215.408 158.701L215.49 158.455L215.957 158.51L216.176 158.756L216.726 158.811L217.522 159.249L217.824 158.811V158.482L218.839 157.908V157.771H218.62L217.824 158.099L217.604 158.345L217.522 158.866L216.204 158.099L215.49 157.962L214.475 158.619H214.008L213.541 158.948L212.69 159.139L212.388 159.468L212.224 159.988L211.29 160.426L210.522 161.192H210.137L210.055 161L209.671 161.055V161.192L208.957 161.137L208.71 161.329V161.712H208.078L207.612 161.904L207.447 162.342L206.129 162.479L205.91 162.725L205.059 162.78L204.427 163.355L204.126 164.586L203.329 165.489L202.698 165.353L202.231 165.681H201.518L201.435 165.927L201.216 165.982L200.914 165.462L200.529 165.407L200.365 165.161L199.816 164.969L199.651 164.449L199.02 163.738L198.855 162.916L198.635 162.396L198.388 162.342V161.904L197.839 161.384L197.757 160.918L197.373 160.289L197.153 159.249L196.522 158.099L196.055 157.442L195.671 157.196L194.957 156.046L194.655 155.855L194.435 155.088L193.804 154.65V154.459L192.486 152.981L192.102 152.159L191.251 151.01V150.763L190.949 150.572L190.4 149.614L189.604 148.902L189.22 148.054L188.671 147.479L188.369 146.767H188.204L187.737 145.535L187.49 145.289L187.408 144.523L186.941 144.085V143.51H187.243L187.326 143.127L187.71 142.798V142.607L188.478 142.141L188.643 141.758L189.439 141.375L189.659 140.992L190.29 140.745L190.592 140.28H190.757L190.675 140.855L190.373 140.91V141.101L189.824 141.485L189.988 141.621L190.208 141.375L190.51 141.43L190.29 142.087L190.922 141.84L191.224 141.32L191.773 141.183V140.225L192.02 140.089L192.569 140.143L192.404 139.815L191.773 140.006V140.143L191.224 140.089L191.004 140.225L190.62 140.034L190.702 139.596L190.537 139.459V139.13L190.702 138.282L191.004 137.953L191.306 137.105L191.855 136.53L191.937 135.49L191.553 134.067L191.169 133.492L190.62 132.014L190.153 131.439L189.686 130.399L189.302 130.07V129.742L188.506 128.456L188.204 126.977L187.984 126.649L188.067 125.691L188.314 125.253L189.027 124.788L189.329 124.924L190.043 124.596L190.592 124.733L191.443 124.268L191.91 124.404L192.541 124.35L193.173 123.693L196.467 123.446L197.016 123.501L197.18 123.748L197.565 123.802L197.647 123.337L197.867 123.091L199.184 122.05L199.349 121.394L198.882 121.257L199.267 120.6L199.816 120.271L200.365 120.217L200.447 119.368L200.831 118.711V118.383H201.051L201.298 118L201.847 117.945L202.478 117.616L202.561 117.096L202.863 116.85V116.138L203.329 115.673L204.894 115.427L204.976 115.235H205.361L205.58 115.043L205.745 114.852L205.663 114.715L205.278 114.77L204.565 115.235L204.098 115.098L203.384 115.153L202.671 116.001V116.467L202.369 117.178L201.737 117.644L201.271 117.507L200.722 118.219L200.474 117.972L199.843 117.917L197.812 118.629L196.878 119.396L196.412 119.532L196.247 119.998L196.027 120.052L196.11 120.244L195.561 120.764L194.71 121.01V121.394L194.326 121.777L193.694 121.722L193.475 121.339L192.843 121.147V120.901L193.392 120.381L193.557 119.669L193.475 119.231L194.408 118.52V118.273L193.777 118.136L193.941 117.561L193.639 117.507L193.008 118.164L192.377 118.355L192.294 117.644L192.075 117.507V117.26L191.141 117.206L190.922 117.26L190.757 117.589V118.109L191.004 118.164L191.086 117.972L191.306 118.109L190.922 118.766L190.455 118.903L190.29 119.861L189.824 120.244V120.901L189.357 120.956L189.11 121.339L188.643 121.366L188.561 121.695L187.298 121.749L186.996 121.558L186.749 121.996L186.996 122.187L187.463 122.242L187.38 122.489L184.333 122.297L183.4 121.831L183.318 121.64L182.851 121.503L182.302 121.038L181.588 120.791L181.506 120.545H181.204L180.902 120.874H180.271L179.804 120.408L178.322 119.833L178.157 119.587L177.059 119.642L176.976 119.505H176.592L176.427 119.56L176.51 119.697L176.043 120.463L175.027 120.408L173.71 120.737L172.694 120.791L172.529 120.846L172.447 121.366L171.651 121.421L171.569 121.613H171.02L170.8 121.229L170.251 121.175L170.169 121.311H168.988L168.604 121.448V121.64L168.055 121.503L167.588 121.64L166.024 121.585L165.722 121.777L165.008 121.722L164.459 122.05H164.075L163.855 122.379L163.388 122.434L163.086 122.899L163.251 123.939L162.62 124.706V124.897L163.004 125.089L162.839 125.335L162.922 125.8L162.757 125.937L161.961 125.883L161.659 125.691L158.996 125.116H157.431L156.8 124.788L156.58 124.979L154.851 124.842L153.286 125.226L152.655 125.609L152.106 126.32V126.266H151.886L152.188 127.169L152.024 127.415L151.255 127.087L151.173 126.375H151.557L151.722 125.992L151.639 125.855H151.173L149.855 126.759V126.95L150.322 127.087L150.404 127.47L150.706 127.662L151.639 127.525L152.188 127.716H152.49L152.792 127.47L152.875 126.95H153.094L152.875 127.908L152.627 128.045H150.761L149.443 128.483L148.427 128.62L146.945 129.194H146.478L145.847 129.769L144.529 130.289L144.31 130.536H144.008L143.239 131.193L143.404 132.233L142.388 132.671L141.62 133.574L141.373 134.34L142.635 135.107V135.955L142.004 136.475H141.153L140.851 136.859L139.204 137.899L138.737 138.857L138.188 139.514L138.271 139.952L137.969 140.28V140.609L138.682 140.8L138.847 140.992V141.375L138.216 141.895L138.051 142.607L138.133 143.702L138.518 143.948L138.82 144.523L139.616 144.66L139.835 144.413H140.137L140.357 144.933L140.604 145.07L140.522 145.508L140.824 146.165L140.357 146.931L140.275 148.218L139.89 148.355V148.683L139.671 149.066H139.369L139.204 148.738L138.82 148.492L138.655 148.108H138.106L136.294 148.629L135.992 149.012L135.91 149.778L135.608 150.545L135.443 150.599V150.791L135.745 150.928L135.827 151.174L135.196 151.311L134.894 151.831L134.345 152.214L133.961 152.159L133.659 151.503L133.028 151.119L132.945 150.736L132.314 150.599L132.149 150.216L132.396 149.97L132.478 149.395L132.314 149.012L132.396 148.683L132.231 148.492L132.314 148.163L132.616 148.218V147.889H132.78L132.945 147.643L132.863 147.452L133.082 147.315V146.795L132.78 146.275L132.478 146.028L132.231 146.083L131.929 145.618L131.463 145.371L131.161 144.851L129.514 143.756L129.349 143.51H128.965L127.867 142.552H127.565L126.165 141.786L123.969 141.211H123.255L122.541 141.676L122.294 141.922L122.129 142.497L121.745 142.88V143.209L121.443 143.537L121.526 143.674L121.224 144.003L120.976 144.714L119.878 145.535L119.714 145.919L119 146.056L118.451 146.877L117.984 147.123L117.188 147.26L116.969 146.11L116.118 145.973L115.816 145.645H115.514L114.333 146.302L114.416 146.685L113.4 146.74L113.318 146.986L112.769 147.315L112.604 147.698L112.137 147.889L112.055 148.327L111.753 148.382L111.204 148.136L111.122 147.698L111.369 147.452L111.204 147.123L110.737 146.795L109.475 146.275L108.541 146.083L107.69 146.138L107.141 146.521V147.424L106.757 147.807L106.839 148.656L106.29 149.887L105.906 150.216V151.174L105.741 151.311L105.494 151.366V151.229L104.863 150.846L104.78 150.517L104.479 150.763L103.929 150.818L103.545 150.435L103.627 150.189L103.078 149.942L102.694 149.477L102.145 149.723L101.98 149.34L101.349 148.957L101.184 148.437L100.635 148.382L100.718 147.999L100.498 147.424L100.663 147.178H101.294L101.459 146.466L101.678 146.22L102.063 146.357L102.365 145.837L102.831 145.7L102.914 145.18L102.529 144.851H102.749L102.996 144.523V143.182L103.627 142.744L104.479 141.786L104.396 141.649L104.78 141.074V140.745L104.479 140.609V140.417L105.192 140.28V140.089L104.89 139.842L106.153 139.076L106.235 138.693H106.537L106.702 138.884L107.004 138.747L107.086 138.09L106.867 137.762L106.949 137.05L106.647 136.859L106.4 136.202L106.702 135.244V134.778L106.537 134.724L106.455 134.395L106.702 134.34L107.086 133.82H107.333L107.416 134.012H108.267L108.349 133.875L108.102 133.82L108.569 133.683L108.953 133.355L108.871 133.218L109.337 132.89H109.557L109.722 133.136H110.655L111.286 132.096L111.204 130.755L111.369 130.563V129.906L111.588 129.578L112.137 129.112L112.933 129.441L113.867 129.249L114.718 128.401V128.018L115.102 127.497V126.786L114.718 126.403L114.882 126.019L115.514 125.499L115.678 124.979L115.98 124.924L116.2 123.967L116.667 123.83L116.831 123.173L117.051 122.79L117.271 122.735L117.106 122.543L117.188 122.16H117.573L118.039 122.489L118.506 122.543L118.808 122.489L118.973 122.16L119.357 122.406L119.659 122.27L119.906 121.613L120.373 121.366L121.086 120.134V119.56L121.471 119.04V118.52L121.855 118.383L122.102 118H122.733L122.816 117.753L123.282 117.425L123.584 117.616H124.051V117.479L124.6 117.616V117.37L125.067 117.315L125.149 116.932L126.467 115.837V115.591L126.714 115.454L126.933 114.879L127.235 114.742V114.605L128.416 114.468L128.333 113.319L128.553 113.127L128.635 112.416L129.102 112.361L129.267 112.498V112.744L128.965 112.689L129.212 113.073L129.129 113.319L128.882 113.456V113.784L129.129 113.921L129.047 114.304L129.294 114.633L130.063 114.879L131.545 114.934L131.627 114.742L132.643 114.687L132.945 114.031L133.329 114.085L133.165 114.14L133.329 114.989L134.263 114.852L135.526 114.277L136.157 113.812L136.624 113.1L137.09 112.854V112.662H137.255L137.557 111.95L137.475 111.704L137.776 111.841L138.408 111.704L138.792 111.184L139.424 110.719L140.192 109.432L140.11 109.049L140.494 108.72L140.659 108.255H141.125L141.208 108.009L142.004 108.2L142.388 107.872L142.553 107.434L142.773 107.297V106.832L143.157 106.449L143.322 105.792L143.569 105.6L143.871 104.314L144.118 104.067L144.42 104.204L144.804 103.493L146.204 102.452L146.286 101.987L146.506 101.741L146.671 101.084L146.89 100.947L146.973 100.564L149.086 100.427L149.333 100.482V100.673H149.553L149.855 100.482L150.239 101.002L150.788 100.947L151.255 100.482V100.235L151.639 99.9068L151.941 99.1952L153.204 97.9634L153.671 97.0054L154.467 96.6768L154.769 96.1021L156.169 95.1988L156.471 94.104L157.239 93.8576L157.624 93.2828V92.9543H158.42L159.188 91.6679L159.435 90.491L159.353 89.7793L159.655 89.7245L159.737 89.4782L160.286 89.4234L160.671 88.1917L161.055 82.5531L161.275 82.0878L161.192 80.8013L159.792 76.148L159.573 73.6847L161.055 71.6866L162.153 71.495L162.318 71.6318V72.3435L163.718 72.015L163.553 72.2613L162.62 72.7266L161.522 73.7667L162.922 75.4637L162.839 76.9419L163.224 77.5988L163.471 77.6536L163.69 77.2704L164.075 77.1335L164.624 75.9566L165.09 75.765V75.3817L164.541 75.4365L164.706 74.8616V73.493L164.404 73.1098L164.651 72.7814L164.486 71.1665L164.871 70.5095L164.953 70.0442L165.584 69.5789H166.133L166.6 68.922L168.384 67.8819L169.318 67.8271V66.8417L169.62 66.3765L170.251 66.2395L171.569 64.1594L172.282 62.5444L174.012 61.121L174.314 60.5463L177.361 58.8492L177.443 58.3838L178.624 57.7269L178.788 56.8784L179.09 56.6868L178.926 56.4405L179.145 55.0719V54.7435L178.98 54.6887V53.2107L179.145 53.1559L179.529 52.1705L180.243 51.8421V51.4588L181.341 50.5555L182.659 50.1723L183.757 49.3238L185.569 49.2691L185.788 48.9407L186.255 48.7491L187.655 47.052L188.369 46.6688L189.384 46.4224L191.031 44.9991L190.647 44.2875H190.949L191.498 45.3276L192.047 45.4644L191.882 45.9297L192.267 46.3129H192.486L192.651 46.0391L192.431 45.2728L193.063 45.4644L193.447 46.1213L193.831 45.9845L194.545 45.4096H196.055V45.5464L196.522 45.7381L196.357 46.4498L197.071 46.833V47.0793H197.318L197.4 46.614L198.333 46.4224L199.431 45.8477L201.545 45.9023L202.478 45.7107L202.698 45.4644L204.098 45.0812L204.482 44.8349L204.784 44.5063L204.949 43.9316L207.282 43.2747L207.584 42.6998L208.216 42.563L208.6 42.3166L208.353 41.9882L208.6 41.3313H209.067L209.698 40.7564H210.247V40.5648H210.549L211.098 40.1817V39.9901H210.933L211.016 39.7984L211.482 39.7436L211.784 39.8805L212.251 39.552L212.882 39.4152L213.129 39.0868L213.898 38.8951L214.282 38.5119L215.216 38.1834L217.494 37.9098L217.741 37.7182L218.455 37.5813L219.471 37.0613L219.388 36.9244L220.02 36.7328L220.816 36.0759H221.035L222.765 34.5705L224.165 33.7766L225.428 32.7365H225.729L226.278 33.1197L226.91 33.3114H227.377L227.925 32.8461L228.392 32.7913L228.777 32.5449L228.859 32.2164L229.024 32.1618V31.7785L229.408 31.5869L229.71 31.0121L230.973 31.3953L231.604 31.2037L231.439 30.0267L230.726 28.3297L230.643 25.7841L230.341 25.6473L229.71 24.8534L228.777 24.5798L228.694 24.2513L227.843 23.5396L225.812 22.6911L225.592 21.2677L226.526 20.6108H226.745L226.992 20.2824L227.377 20.2276L228.227 20.693L229.161 20.6382L229.71 21.1035L230.808 21.4867H231.604L231.769 21.6236L232.4 21.4867L232.565 21.6236L232.4 22.6637L232.647 22.7185L232.812 23.3754L232.977 23.4302L232.757 24.2787L233.388 24.744L233.608 24.6892L234.239 25.0176L235.804 25.1546L238.302 24.4976L238.522 24.2513L239.318 24.0049L239.62 23.7313H240.416L240.498 23.9229H240.718L240.635 24.3061L240.8 24.6346L241.431 25.0176L241.514 25.4831L242.063 26.0578L242.831 26.1946L243.463 26.5779L245.412 26.9611L245.659 27.536L245.412 28.7676L245.659 29.6161L246.125 29.8077L246.345 30.3278L246.812 30.711L248.678 31.6143L251.259 31.9976L252.906 31.8606L253.922 31.6143L254.553 31.9428L256.035 31.9976L256.255 32.1344L259.384 31.9428L259.933 31.6143H260.4L261.196 31.9976L261.031 32.0522L261.114 32.2986L261.333 32.1618V32.3532L262.129 32.4902V32.6271H263.694L265.424 31.9702L266.055 31.9154L266.137 31.7238L266.851 31.5869L268.251 30.93H268.718L268.882 30.6836L270.667 30.0267L271.216 29.5614H271.435L271.655 29.233H271.902L272.122 28.9592L272.753 28.7676L273.769 28.1107L274.537 27.9738L275.333 27.3169L275.882 27.1801L276.514 26.6052L277.694 26.2768L277.941 26.4684V26.7969L277.694 26.9885L277.859 27.1253L277.776 27.5906L278.243 28.3845L278.792 28.5761L278.875 29.233L279.671 29.8899L279.89 30.3552L280.137 30.3004L280.522 30.629L280.988 30.7658L281.537 31.4775L282.553 31.9428L282.388 31.6143L281.455 30.9574V30.711L280.192 29.9993L279.176 28.6307L278.627 28.3023L278.078 27.6454L278.161 27.5086L278.243 27.7002L278.627 27.8918L279.176 27.5632L278.627 27.0433L278.161 27.1801L278.078 26.8517L279.259 25.9484L279.341 25.6199L279.973 25.0998L280.439 24.4429L282.086 23.8681L283.02 23.2932L283.486 23.4302L284.035 23.2932L284.2 23.4302L284.282 23.2386L284.2 23.7039L284.365 23.7586H284.749L284.914 23.567L285.847 23.2932L286.396 23.348L286.478 23.0744L287.275 22.3627L289.553 21.3225L289.773 21.0489L290.486 20.9119L293.149 19.6803L294.165 19.4887L294.933 19.0232L295.867 18.9686L296.114 18.6401L296.58 18.4485L299.628 18.5032L300.808 17.8463L301.988 17.6546L302.702 17.3262H303.553L303.8 17.1346L304.349 17.2716ZM148.757 0L149.306 0.5747L150.404 1.04014H150.788L151.008 0.656895L151.776 0.79372L151.859 1.17696L151.612 1.64224L151.914 1.77906L152.078 2.05288H152.298L152.38 1.77906L152.6 1.72443L152.765 1.06737L153.012 1.01274L153.231 1.25899H153.698L153.78 1.39582L154.961 1.20436L155.18 1.01274L155.894 1.34119H156.91L157.075 1.47801L156.992 1.99808L157.294 2.27173V2.92863L157.678 3.06562L157.843 3.33927L158.31 3.58569H158.694L159.957 2.92863H160.424L160.726 2.46336H161.275L162.043 3.17505L162.427 3.12025L162.592 2.874L162.894 2.8192L163.69 3.28447L164.075 3.22985L164.871 3.42147L165.639 3.94154H165.886L166.051 3.74991H166.6L167.616 4.26998V3.09302L168.329 3.14765L168.247 3.61292L168.494 3.74991L168.659 4.32461L168.961 4.65306L168.576 5.63857L169.29 5.6932L169.455 5.93962L169.839 5.99442V6.37749L170.224 6.56912V6.76074L169.922 7.08919L170.004 7.55446L170.773 8.12933L170.69 9.11467L170.937 9.30629L170.773 10.3464L169.757 11.715V12.2899L169.29 12.6183L169.757 13.0016H170.471L170.553 13.2752L170.388 13.5216L170.553 13.7953L171.02 13.8501V14.0963H171.239V14.6164L171.624 14.7532L171.404 15.7387L171.239 15.7934L171.486 16.4503L172.804 16.5873L172.969 16.3408L173.518 16.2861L173.6 16.4777L174.78 16.6145L174.945 16.9431L175.329 17.2168H175.714L176.18 16.9431L176.4 17.1346L176.482 17.5178L175.714 18.3117L175.631 18.8318L175.714 19.297L176.345 19.5707L176.18 19.7623L176.565 19.8991L176.729 20.3646L175.933 21.0215V21.2131L176.482 21.87L176.729 21.8152L176.894 21.5415H177.141L177.306 21.7332L177.388 23.1018L177.69 23.7586V24.2787L177.855 24.4155L177.937 26.1674L179.584 27.1527H180.051L180.216 27.399L179.584 29.4246L178.871 29.9993L178.651 30.711L178.871 31.2311L179.722 31.7511L180.655 31.8059L180.957 31.3405L182.906 31.2859L183.62 30.8204H184.471L185.733 30.3552L185.98 29.9719L187.847 29.7257L188.561 29.4518L188.863 28.1381L189.412 27.6728L189.631 27.1527L190.949 26.359L191.663 26.3042L191.882 26.0578L193.749 26.1946L194.133 26.441L194.765 26.3042L195.78 26.8789L196.631 26.9337L197.016 27.3169L198.196 27.3717L198.416 27.5632L199.349 27.5086L199.514 27.2347L200.776 26.9885L201.243 27.3717L201.957 27.618L202.506 27.7548L202.973 27.618V27.7548L202.671 27.8096H202.973L203.137 28.056L202.506 28.8498L202.341 29.4246L201.408 29.4792L200.859 29.7257V30.1089H200.557V31.5321L200.255 31.5869L200.173 31.7785H199.541L199.239 32.0248L198.855 32.5997L198.608 33.6398L198.059 34.9536L196.577 36.3222L196.494 37.1161L196.659 38.7309L196.412 39.251L194.765 39.771L194.38 40.6744L194.463 41.1396H193.831L192.651 42.125H192.404L192.184 42.4534L191.333 42.782L189.769 44.2053L189.137 44.5337L188.369 45.3822L187.573 45.6286L186.392 46.4224L186.008 48.8311L185.459 49.0227L184.827 48.8311V48.1742L183.729 48.3658L182.796 49.3512L182.714 49.5428L182.933 49.5976L182.851 49.7344L182.384 49.7892L182 50.0355H181.067L180.133 50.5555L179.2 51.4588L178.569 52.8821L178.486 54.1686L178.651 55.3456L178.404 56.1393L177.937 56.6594V57.2342L177.388 57.1794L177.169 57.6449L176.784 57.6995L176.071 58.2196H175.275L174.259 58.7396L173.957 59.3965L172.639 60.0536L172.008 60.9021L171.294 61.4768L171.212 61.7232H170.58L170.196 61.9149L169.427 63.0096L168.961 64.2414L168.247 64.6246L166.682 65.911L164.02 66.8143H163.004L162.922 66.4311L163.306 66.1848L163.224 65.9932L162.208 66.2395L161.659 66.1026L161.027 65.7194L160.643 65.7742L161.11 65.9658L161.275 66.4859L160.973 67.6629L158.941 69.0314H158.008V69.2779H158.392L158.777 69.6063L159.326 69.7431H160.259L161.906 70.4L162.537 70.3452L162.702 70.9201L162.537 71.1117H162.235L161.686 70.4548L160.835 70.2084L158.255 69.9622L156.526 68.6756L155.729 67.8271L154.467 67.1702L152.6 66.6501H152.133L151.584 66.8965L151.42 67.6081L151.639 67.8545L151.337 68.1829L150.953 68.3198V68.7852L150.651 69.4967L150.267 69.6883L149.965 69.1683L150.267 68.1281L150.569 67.9365V67.6081L150.816 67.5534L151.365 66.7049L150.349 64.6246L150.102 63.3381L149.937 63.2834L150.02 62.955L150.816 61.9149L151.447 62.1611L151.749 61.641L152.6 61.3948L152.984 61.0663L153.067 61.3948H154.165L154.467 60.6283L154.549 59.725L155.18 58.247L154.961 57.2068L154.412 55.9204H154.11L154.192 56.2489L153.012 56.7142L152.298 57.6175L151.996 58.6028L151.529 58.9313H150.898L150.651 59.9714L150.733 60.3546L150.431 60.8199L149.635 61.5864H149.388L148.839 62.2433L148.537 63.3381L147.769 63.5297L147.302 63.8581L147.137 64.1866H146.753L146.506 64.3782V64.7067L146.204 64.2414L146.424 63.9951V63.5297L146.039 63.3929L145.655 62.4349L145.106 62.3801L144.722 62.7634V62.2979L145.024 61.7232V60.8747L144.639 60.9293L144.173 59.8346L144.337 58.548L143.239 57.8365L143.075 58.3018L142.91 58.1649L142.141 58.3018L141.976 58.8218L141.043 58.685L140.659 59.3419L140.192 59.5335V59.0681H139.89V58.3018H139.726V57.9733L140.11 57.6449L140.027 57.2616L139.808 57.2068L139.643 57.7269H139.259L139.094 57.3985L137.227 57.0152L137.145 56.769L137.447 56.6321L137.612 56.3035V55.9204L137.31 55.5372L137.392 54.8803L137.639 54.6887V54.0318L138.188 53.4569L138.271 52.6084L138.902 52.5536L138.984 52.3074L137.722 52.6358L137.639 51.7325L138.271 51.3492L137.722 50.4461L136.925 49.8712L136.541 49.1049L135.443 48.7763L134.976 48.0648L135.141 47.4077L135.059 46.8878L135.443 46.5592L135.361 46.0391L134.592 45.7107H134.043L133.494 45.3822L132.945 44.3421L131.765 43.7674L131.847 43.6306L131.463 43.3841L131.38 43.0557L130.667 42.5356L130.914 42.2892L130.996 41.6323L131.298 41.3039L130.914 41.1122L130.612 40.5922L130.31 40.5375L130.173 39.771L130.337 39.7163L130.255 39.3878L131.024 38.5941L130.859 38.2108L130.612 38.2656L130.31 38.7309V38.9773L130.063 39.032L129.514 38.5119L129.596 38.1288H129.376L129.075 37.8004L129.157 37.5539L128.992 37.3077L129.376 37.2529L129.075 37.0613L129.157 36.7876L128.937 36.7328L128.69 36.9244H128.388V37.2529L128.224 37.3077L127.922 37.0613V36.9244L128.224 36.8697L127.977 36.678L128.059 36.4044L127.894 36.2676L127.427 36.6506L127.263 36.377L126.631 36.0485L126.851 35.2L126.549 35.1452L126.467 35.5285L126.082 35.5833L126.165 35.0632L126 35.0084V34.8168L126.714 34.762L126.631 34.3789L127.565 33.9135V33.2566L127.949 33.1197L129.129 31.8333L129.843 31.3133L130.008 30.5194L130.173 30.4648L130.42 30.93H130.722L131.188 30.7384L131.271 30.5468L131.902 30.3552L131.984 29.5066L132.533 28.8498H133V28.7129H132.149L131.682 29.5066L130.749 29.6983H130.529V29.3698H130.365L129.898 30.41L129.514 30.6016L129.212 30.1361L129.761 28.9592L129.596 28.3845L129.843 27.8096L129.678 26.7695L129.376 26.3042L128.58 26.2494V25.4557L128.361 24.7988L127.647 24.744L127.427 24.8808V24.6892L126.878 24.4976L127.098 23.5944H126.631L126.467 23.4028L126.549 23.0196L126.851 22.9648L127.016 22.4995L127.318 22.6911H127.949L128.58 22.0342V21.3225L128.361 21.0489V20.8025L128.663 20.3372H128.965L129.047 19.9539L128.498 19.8991V19.6529L128.58 19.3791L129.047 18.996L129.212 18.3389L128.361 18.0105L128.663 17.8737L129.376 16.8883L129.926 16.6967L130.008 15.7934L130.227 15.5197L130.31 13.4942L130.694 13.4394L130.227 12.4541H129.678L129.459 12.2077V11.496L129.157 11.3592L128.937 10.9759V10.4012L129.157 10.2096L129.239 9.68954L129.02 9.36109L128.306 9.08727L128.388 8.70419L128.086 8.56737V8.32095L128.388 8.26615V7.69145L127.757 7.30821V6.51449L127.922 6.18587L129.486 5.28273L129.953 5.33736L130.118 5.8028L130.502 6.04905L131.353 5.99442L131.435 5.6658L131.984 5.39215L132.286 5.52898H133.384L133.686 5.33736L134.318 5.47435L134.4 5.28273L134.18 4.89948L134.482 4.32461L135.114 3.99617L135.196 4.37941L135.745 4.43421L136.212 3.4487L136.843 3.06562L137.227 3.20245L136.98 3.4487V3.72252L136.678 3.91414V4.43421L137.529 5.00891L137.831 4.95428L137.914 4.57103L138.463 3.91414L138.929 3.85934L139.396 4.43421H139.643L139.726 4.24259H140.275L139.973 3.77731L140.275 3.25724L140.027 2.60018H140.329L140.549 2.32653L141.18 2.51815L141.482 1.86126L141.729 1.72443L142.498 1.97068V2.24434L142.031 2.9014L142.965 3.17505L143.047 3.36667L142.882 3.64032H143.431L143.349 3.17505H143.514L143.816 3.31187H144.914L144.996 3.88674L145.847 3.74991L145.929 3.5035H145.627L145.161 2.7918L146.094 2.2171V1.88866L145.325 2.08011H145.024L144.941 1.88866H145.161L145.545 1.50541L146.478 1.45062V1.06737L146.78 0.875749H147.165L147.329 0.629497L148.345 0.766322V0.301049L148.757 0Z" fill="black"/>
</svg>
